<?xml version="1.0" standalone="no"?>
<!DOCTYPE svg PUBLIC "-//W3C//DTD SVG 20010904//EN"
 "http://www.w3.org/TR/2001/REC-SVG-20010904/DTD/svg10.dtd">
<svg version="1.0" xmlns="http://www.w3.org/2000/svg"
 width="260.000000pt" height="260.000000pt" viewBox="0 0 260.000000 260.000000"
 preserveAspectRatio="xMidYMid meet">
<metadata>
Created by potrace 1.11, written by Peter Selinger 2001-2013
</metadata>
<g transform="translate(0.000000,260.000000) scale(0.100000,-0.100000)"
fill="#000000" stroke="none">
<path d="M462 2541 c-71 -85 -104 -135 -155 -234 -66 -127 -117 -306 -117
-409 l0 -28 1114 0 1115 0 -1 30 -1 30 -261 1 c-524 2 -1547 24 -1602 34 -11
2 -39 4 -64 5 -72 1 -27 17 70 25 47 4 105 8 130 10 138 11 864 23 1428 24
255 1 273 2 270 19 -3 16 -24 17 -263 18 -675 3 -1554 27 -1610 43 l-30 9 30
2 c17 1 38 3 49 5 24 5 158 15 266 20 115 6 691 14 1148 16 293 2 372 5 372
15 0 7 -3 15 -7 17 -5 3 -242 8 -528 12 -286 3 -567 8 -625 10 -58 2 -197 6
-310 10 -113 4 -221 8 -240 10 -19 1 -53 3 -75 4 -62 3 -14 18 82 26 43 4 100
8 127 11 101 8 416 14 955 19 305 3 557 7 559 10 11 10 -102 190 -165 262
l-28 33 -40 -37 c-109 -99 -214 -145 -342 -149 -132 -5 -233 34 -340 131 l-60
54 -53 -44 c-218 -179 -479 -174 -707 12 l-41 34 -50 -60z"/>
<path d="M183 1728 c4 -57 9 -114 12 -128 20 -101 30 -143 50 -209 135 -448
462 -895 952 -1300 74 -61 117 -90 125 -85 75 47 438 392 516 491 l33 42 -203
1 c-112 1 -221 3 -243 4 -22 2 -101 7 -175 11 -74 4 -146 8 -160 10 -14 1 -40
3 -59 4 -19 0 -31 4 -27 8 8 9 20 10 126 19 47 3 96 8 110 10 38 4 439 17 582
17 95 1 129 4 132 14 4 10 -45 13 -247 14 -139 1 -274 2 -302 4 -27 1 -122 5
-210 10 -149 6 -203 9 -265 14 -45 4 7 18 90 25 242 20 347 24 718 27 230 2
286 5 298 16 8 8 14 15 14 16 0 1 -120 2 -268 3 -402 1 -934 23 -951 39 -2 3
2 5 10 6 8 0 22 2 33 4 10 2 62 7 115 10 53 4 114 9 136 11 53 4 539 15 787
18 139 1 201 5 210 14 9 9 -43 12 -243 13 -340 1 -442 3 -954 25 -77 3 -147
10 -155 15 -12 6 -9 9 10 9 14 1 32 3 40 4 103 20 515 34 1040 36 278 2 340 7
340 28 0 4 -150 7 -333 8 -182 0 -420 3 -527 7 -107 4 -251 9 -320 12 -178 6
-324 16 -329 21 -9 9 6 12 79 19 41 3 98 8 125 11 106 9 299 14 815 19 473 5
569 10 549 29 -2 2 -222 6 -489 10 -267 4 -532 8 -590 11 -58 2 -186 7 -285
10 -99 4 -193 8 -210 10 -16 2 -43 4 -60 5 -59 3 8 18 111 25 55 4 115 8 134
10 62 6 554 16 999 20 289 2 437 7 444 14 6 6 9 12 6 12 -2 1 -125 3 -274 4
-579 6 -1354 26 -1458 39 -39 5 -46 16 -11 17 16 0 38 2 49 4 11 2 61 7 110
10 50 4 110 9 135 11 45 4 815 14 1250 17 185 2 235 5 235 15 0 10 -91 14
-450 17 -247 3 -533 7 -635 10 -264 6 -597 17 -650 20 -25 2 -63 3 -84 4 -65
2 -29 19 54 26 41 3 98 8 125 10 118 12 736 22 1413 25 248 1 262 2 262 20 0
17 -16 18 -342 20 -817 3 -1586 25 -1605 44 -7 7 115 20 292 31 89 6 940 18
1357 19 308 1 317 2 320 21 4 20 -1 20 -351 21 -723 2 -1614 24 -1630 40 -9 9
7 13 89 19 47 4 101 8 120 10 107 11 802 23 1408 24 l372 1 0 40 0 40 -1121 0
-1122 0 6 -102z"/>
</g>
</svg>
